<?xml version="1.0" encoding="UTF-8"?>
<svg id="Layer_2" data-name="Layer 2" xmlns="http://www.w3.org/2000/svg" viewBox="0 0 566.93 506.2">
  <defs>
    <style>
      .cls-1 {
        fill: #ffe1f9;
        stroke-width: 0px;
      }
    </style>
  </defs>
  <g id="Layer_1-2" data-name="Layer 1">
    <path class="cls-1" d="m566.93,20.25c0-11.18-9.07-20.25-20.25-20.25-111.57,0-226.04,125.82-289.62,209.14-80.19-24.56-165.11,20.54-189.67,100.73-4.41,14.41-6.66,29.4-6.66,44.47,0,78.16-49.46,113.21-51.81,114.83-9.27,6.26-11.71,18.84-5.45,28.11,3.76,5.57,10.04,8.91,16.76,8.92h192.36c83.87,0,151.86-67.99,151.86-151.86,0-15.07-2.24-30.06-6.66-44.47,83.35-63.58,209.14-178.06,209.14-289.62ZM212.59,465.7H67.39c17.08-24.27,33.84-60.95,33.84-111.36,0-61.5,49.86-111.36,111.36-111.36s111.36,49.86,111.36,111.36-49.86,111.36-111.36,111.36Zm82.06-239.05c8.67-11.24,17.19-21.83,25.54-31.76,20.44,13.81,38.05,31.42,51.86,51.86-9.96,8.34-20.54,16.85-31.76,25.54-11.8-18.28-27.36-33.83-45.63-45.63Zm108.07-6.78c-15.29-21.57-34.11-40.4-55.68-55.68,80.44-87.4,141.1-113.9,176.92-121.26-7.21,35.84-33.84,96.51-121.24,176.94Z"/>
  </g>
</svg>