<?xml version="1.0" encoding="UTF-8"?>
<svg id="Layer_2" data-name="Layer 2" xmlns="http://www.w3.org/2000/svg" viewBox="0 0 566.93 793.38">
  <defs>
    <style>
      .cls-1 {
        fill: #fffcf7;
        stroke-width: 0px;
      }
    </style>
  </defs>
  <g id="Layer_1-2" data-name="Layer 1">
    <path class="cls-1" d="m557.36,282.18L480.25,20.33C476.7,8.28,465.65,0,453.09,0H113.84c-12.56,0-23.62,8.28-27.17,20.33L9.57,282.18c-24.68,81.87-.76,170.65,61.7,229.05,50.37,47.24,115.09,76.27,183.86,82.49v142.99h-113.34c-15.65,0-28.34,12.69-28.34,28.34s12.69,28.34,28.34,28.34h283.35c15.65,0,28.34-12.69,28.34-28.34s-12.69-28.34-28.34-28.34h-113.34v-142.99c68.77-6.22,133.49-35.26,183.86-82.49,62.46-58.4,86.38-147.18,61.7-229.05ZM135.02,56.67h296.88l71.16,241.52c.32,1.06.6,2.13.89,3.19-75.87,27.2-161.3-5.67-207.66-29.15-89.22-45.16-160.06-50.9-212.3-42.25l51.04-173.3Zm321.99,413.16c-97.64,91.43-249.46,91.43-347.1,0-46.74-43.8-64.59-110.33-46.04-171.64l1.59-5.38c42.5-14.38,110.05-18.21,205.18,30,39.49,20.01,103.28,45.51,171.53,45.51,22.81.11,45.53-2.99,67.47-9.21-2.89,42.24-21.7,81.81-52.63,110.72Z"/>
  </g>
</svg>