<?xml version="1.0" encoding="UTF-8"?>
<svg id="Layer_2" data-name="Layer 2" xmlns="http://www.w3.org/2000/svg" viewBox="0 0 566.93 567.05">
  <defs>
    <style>
      .cls-1 {
        fill: #ffe1f9;
        stroke-width: 0px;
      }
    </style>
  </defs>
  <g id="Layer_1-2" data-name="Layer 1">
    <path class="cls-1" d="m208.55,117.16c-16.22-16.18-42.48-16.14-58.66.08-4.26,4.27-7.53,9.41-9.6,15.07L2.49,511.34c-7.82,21.58,3.34,45.41,24.92,53.23,4.43,1.61,9.11,2.45,13.83,2.48,4.89-.03,9.75-.92,14.33-2.63l379.01-137.83c21.52-7.84,32.61-31.65,24.77-53.17-2.06-5.67-5.34-10.81-9.6-15.08L208.55,117.16Zm-21.87,354.96l-91.88-91.88,34.55-95.06,152.4,152.4-95.06,34.55Zm-144.39,52.5l36.75-100.84,64.19,64.19-100.94,36.65Zm283.11-102.91l-180.2-180.2,34.13-94.17,240.03,240.03-93.96,34.34Zm10.5-253.7c.39-14.2,3.83-28.15,10.08-40.9,13.91-27.8,40.17-43.11,73.93-43.11,17.59,0,28.88-6.01,35.83-18.93,3.66-7.23,5.77-15.14,6.17-23.23.04-11.6,9.48-20.97,21.08-20.92,11.6.04,20.97,9.48,20.92,21.08,0,33.76-22.37,84.01-84.01,84.01-17.59,0-28.88,6.01-35.83,18.93-3.66,7.23-5.77,15.14-6.17,23.23-.04,11.6-9.48,20.97-21.08,20.92s-20.97-9.48-20.92-21.08Zm-63.01-84.01V21c0-11.6,9.4-21,21-21s21,9.4,21,21v63.01c0,11.6-9.4,21-21,21s-21-9.4-21-21Zm266.88,216.16c8.2,8.21,8.19,21.51-.01,29.7-8.21,8.2-21.51,8.19-29.7-.01h0l-42-42c-8.21-8.21-8.21-21.51,0-29.72,8.21-8.21,21.51-8.21,29.72,0l42,42.03Zm12.78-112.23l-63.01,21c-11,3.67-22.9-2.28-26.57-13.28-3.67-11,2.28-22.9,13.28-26.57l63.01-21c11-3.67,22.9,2.28,26.57,13.28,3.67,11-2.28,22.9-13.28,26.57Z"/>
  </g>
</svg>