<?xml version="1.0" encoding="UTF-8"?>
<svg width="1200pt" height="1200pt" version="1.1" viewBox="0 0 1200 1200" xmlns="http://www.w3.org/2000/svg">
 <path d="m431.74 570.98-43.977 208.92c-0.875 4.1484-0.13281 8.4727 2.0703 12.094 2.2031 3.6211 5.6992 6.2656 9.7852 7.3984 4.0859 1.1328 8.4453 0.66797 12.199-1.3008l188.18-98.93 188.18 98.926c3.7539 1.9727 8.1133 2.4375 12.199 1.3047 4.0859-1.1328 7.582-3.7773 9.7852-7.3984 2.2031-3.6211 2.9453-7.9453 2.0703-12.094l-43.977-208.92 160.07-148.09v-0.003907c3.1133-2.8789 5.0156-6.8359 5.3125-11.066 0.29687-4.2266-1.0312-8.4141-3.7109-11.699-2.6797-3.2852-6.5117-5.4258-10.715-5.9844l-208.23-27.66-96.062-193.55c-3.125-5.2734-8.7969-8.5078-14.926-8.5078s-11.801 3.2344-14.926 8.5078l-96.062 193.55-208.23 27.66c-4.2031 0.55859-8.0352 2.6992-10.715 5.9844-2.6797 3.2891-4.0078 7.4727-3.7109 11.703 0.29688 4.2305 2.1992 8.1875 5.3125 11.066zm70.461-172.63c5.4961-0.72656 10.27-4.1445 12.727-9.1133l85.074-171.41 85.074 171.41c2.457 4.9688 7.2305 8.3867 12.727 9.1133l181.87 24.152-140.98 130.43c-4.3086 3.9766-6.207 9.9297-4.9961 15.664l38.625 183.5-164.57-86.516h-0.003906c-4.8477-2.5469-10.645-2.5469-15.492 0l-164.57 86.516 38.625-183.5h-0.003906c1.2109-5.7344-0.6875-11.688-4.9961-15.664l-140.98-130.43z"/>
 <path d="m150 200h66.668c4.418 0 8.6602-1.7539 11.785-4.8789 3.125-3.1289 4.8828-7.3672 4.8789-11.789v-66.664c0.003907-4.4219-1.7539-8.6602-4.8789-11.789-3.125-3.125-7.3672-4.8789-11.785-4.8789h-66.668c-4.4219 0-8.6602 1.7539-11.785 4.8789-3.1289 3.1289-4.8828 7.3672-4.8828 11.789v66.668-0.003907c0 4.4219 1.7539 8.6602 4.8828 11.789 3.125 3.125 7.3633 4.8789 11.785 4.8789zm16.668-66.668h33.332v33.332l-33.332 0.003907z"/>
 <path d="m983.33 333.33h66.668c4.4219 0.003907 8.6602-1.7539 11.785-4.8789 3.1289-3.125 4.8828-7.3672 4.8828-11.785v-66.668c0-4.4219-1.7539-8.6602-4.8828-11.785-3.125-3.1289-7.3633-4.8828-11.785-4.8828h-66.668c-4.418 0-8.6602 1.7539-11.785 4.8828-3.125 3.125-4.8828 7.3633-4.8789 11.785v66.668c-0.003907 4.418 1.7539 8.6602 4.8789 11.785s7.3672 4.8828 11.785 4.8789zm16.668-66.668h33.332v33.332l-33.332 0.003906z"/>
 <path d="m150 816.67c13.262 0 25.98-5.2695 35.355-14.645 9.375-9.3789 14.645-22.098 14.645-35.355 0-13.262-5.2695-25.98-14.645-35.355-9.375-9.3789-22.094-14.645-35.355-14.645s-25.98 5.2656-35.355 14.645c-9.375 9.375-14.645 22.094-14.645 35.355 0.015625 13.254 5.2852 25.965 14.66 35.34 9.375 9.3711 22.082 14.645 35.34 14.66zm0-66.668c4.4219 0 8.6602 1.7578 11.785 4.8828s4.8828 7.3633 4.8828 11.785c0 4.418-1.7578 8.6602-4.8828 11.785s-7.3633 4.8789-11.785 4.8789-8.6602-1.7539-11.785-4.8789-4.8828-7.3672-4.8828-11.785c0.003907-4.4219 1.7617-8.6562 4.8867-11.781s7.3633-4.8828 11.781-4.8867z"/>
 <path d="m1033.3 1016.7c17.684 0 34.641-7.0234 47.141-19.527 12.504-12.504 19.527-29.461 19.527-47.141s-7.0234-34.637-19.527-47.141c-12.5-12.504-29.457-19.527-47.141-19.527-17.68 0-34.637 7.0234-47.141 19.527-12.5 12.504-19.523 29.461-19.523 47.141 0.015625 17.676 7.0469 34.621 19.547 47.121 12.496 12.496 29.441 19.527 47.117 19.547zm0-100c8.8438 0 17.32 3.5117 23.57 9.7617 6.2539 6.25 9.7656 14.73 9.7656 23.57s-3.5117 17.32-9.7656 23.57c-6.25 6.25-14.727 9.7617-23.57 9.7617-8.8398 0-17.316-3.5117-23.57-9.7617-6.25-6.25-9.7617-14.73-9.7617-23.57 0.011719-8.8359 3.5234-17.309 9.7734-23.559s14.723-9.7656 23.559-9.7734z"/>
 <path d="m700 1050c3.2891 0 6.5078-0.97656 9.2422-2.8008 2.7383-1.8281 4.875-4.4219 6.1367-7.4609l83.332-200h0.003906c2.2891-5.4961 1.4766-11.793-2.1367-16.527-3.6133-4.7305-9.4766-7.1758-15.383-6.4102-5.9023 0.76172-10.953 4.6172-13.242 10.113l-83.332 200c-2.1367 5.1445-1.5664 11.016 1.5195 15.652 3.0898 4.6328 8.2891 7.4258 13.859 7.4336z"/>
 <path d="m500 1e3c5.4688-0.003906 10.586-2.6836 13.699-7.1797 3.1133-4.4922 3.8281-10.227 1.9102-15.348l-50-133.33c-1.5352-4.1641-4.6641-7.5469-8.6992-9.3984-4.0352-1.8477-8.6406-2.0117-12.797-0.45312s-7.5195 4.707-9.3438 8.7539-1.9609 8.6523-0.37891 12.801l50 133.33c1.1953 3.1797 3.3281 5.918 6.1133 7.8516 2.7891 1.9336 6.1016 2.9688 9.4961 2.9727z"/>
 <path d="m583.32 1083.3c0.62109 0.003907 1.2383-0.03125 1.8555-0.10547 4.3945-0.48828 8.4141-2.6992 11.176-6.1484 2.7617-3.4492 4.0391-7.8594 3.5547-12.25l-16.668-150c-0.67188-5.9062-4.4375-11.008-9.8867-13.387-5.4453-2.3828-11.75-1.6836-16.539 1.8359-4.793 3.5156-7.3516 9.3203-6.7109 15.227l16.668 150c0.45312 4.0781 2.3906 7.8398 5.4453 10.578 3.0508 2.7344 7.0078 4.2461 11.105 4.25z"/>
 <path d="m650.02 916.67c3.9414-0.003907 7.7578-1.4062 10.762-3.9531 3.0078-2.5508 5.0156-6.082 5.6602-9.9727l16.668-100c0.92188-5.8477-1.3242-11.746-5.9062-15.496-4.5781-3.75-10.805-4.7891-16.355-2.7266-5.5508 2.0586-9.5898 6.9062-10.617 12.738l-16.668 100h0.003906c-0.80469 4.8359 0.5625 9.7773 3.7305 13.516 3.168 3.7383 7.8242 5.8945 12.723 5.8945z"/>
 <path d="m233.33 1033.3c0-5.9531-3.1758-11.457-8.332-14.434-5.1562-2.9766-11.512-2.9766-16.668 0-5.1562 2.9766-8.332 8.4805-8.332 14.434v16.668c0 5.9531 3.1758 11.457 8.332 14.434 5.1562 2.9766 11.512 2.9766 16.668 0 5.1562-2.9766 8.332-8.4805 8.332-14.434z"/>
 <path d="m250 1100h16.668c5.9531 0 11.457-3.1758 14.434-8.332 2.9766-5.1562 2.9766-11.512 0-16.668-2.9766-5.1562-8.4805-8.332-14.434-8.332h-16.668c-5.9531 0-11.457 3.1758-14.434 8.332-2.9766 5.1562-2.9766 11.512 0 16.668 2.9766 5.1562 8.4805 8.332 14.434 8.332z"/>
 <path d="m166.67 1100h16.668-0.003907c5.957 0 11.457-3.1758 14.434-8.332 2.9805-5.1562 2.9805-11.512 0-16.668-2.9766-5.1562-8.4766-8.332-14.434-8.332h-16.664c-5.957 0-11.457 3.1758-14.434 8.332-2.9805 5.1562-2.9805 11.512 0 16.668 2.9766 5.1562 8.4766 8.332 14.434 8.332z"/>
 <path d="m216.67 1100c-4.4219 0-8.6602 1.7539-11.789 4.8789-3.125 3.1289-4.8789 7.3672-4.8789 11.789v16.668-0.003907c0 5.957 3.1758 11.457 8.332 14.434 5.1562 2.9805 11.512 2.9805 16.668 0 5.1562-2.9766 8.332-8.4766 8.332-14.434v-16.664c0.003907-4.4219-1.7539-8.6602-4.8789-11.789-3.125-3.125-7.3672-4.8789-11.785-4.8789z"/>
 <path d="m1066.7 483.33c0 5.957 3.1758 11.457 8.332 14.434 5.1562 2.9805 11.512 2.9805 16.668 0 5.1562-2.9766 8.332-8.4766 8.332-14.434v-16.664c0-5.957-3.1758-11.457-8.332-14.434-5.1562-2.9805-11.512-2.9805-16.668 0-5.1562 2.9766-8.332 8.4766-8.332 14.434z"/>
 <path d="m1133.3 500h-16.664c-5.957 0-11.457 3.1758-14.434 8.332-2.9805 5.1562-2.9805 11.512 0 16.668 2.9766 5.1562 8.4766 8.332 14.434 8.332h16.668-0.003907c5.957 0 11.457-3.1758 14.434-8.332 2.9805-5.1562 2.9805-11.512 0-16.668-2.9766-5.1562-8.4766-8.332-14.434-8.332z"/>
 <path d="m1050 500h-16.668c-5.9531 0-11.457 3.1758-14.434 8.332-2.9766 5.1562-2.9766 11.512 0 16.668 2.9766 5.1562 8.4805 8.332 14.434 8.332h16.668c5.9531 0 11.457-3.1758 14.434-8.332 2.9766-5.1562 2.9766-11.512 0-16.668-2.9766-5.1562-8.4805-8.332-14.434-8.332z"/>
 <path d="m1083.3 533.33c-4.418 0-8.6602 1.7539-11.785 4.8828-3.125 3.125-4.8828 7.3633-4.8789 11.785v16.668c0 5.9531 3.1758 11.457 8.332 14.434 5.1562 2.9766 11.512 2.9766 16.668 0 5.1562-2.9766 8.332-8.4805 8.332-14.434v-16.668c0-4.4219-1.7539-8.6602-4.8789-11.785-3.1289-3.1289-7.3672-4.8828-11.789-4.8828z"/>
 <path d="m116.67 366.67c4.418 0 8.6602-1.7539 11.785-4.8828 3.125-3.125 4.8828-7.3633 4.8789-11.785v-16.668c0-5.9531-3.1758-11.457-8.332-14.434-5.1562-2.9766-11.512-2.9766-16.668 0-5.1562 2.9766-8.332 8.4805-8.332 14.434v16.668c0 4.4219 1.7539 8.6602 4.8789 11.785 3.1289 3.1289 7.3672 4.8828 11.789 4.8828z"/>
 <path d="m166.67 400c5.9531 0 11.457-3.1758 14.434-8.332 2.9766-5.1562 2.9766-11.512 0-16.668-2.9766-5.1562-8.4805-8.332-14.434-8.332h-16.668c-5.9531 0-11.457 3.1758-14.434 8.332-2.9766 5.1562-2.9766 11.512 0 16.668 2.9766 5.1562 8.4805 8.332 14.434 8.332z"/>
 <path d="m66.668 400h16.664c5.957 0 11.457-3.1758 14.434-8.332 2.9805-5.1562 2.9805-11.512 0-16.668-2.9766-5.1562-8.4766-8.332-14.434-8.332h-16.664c-5.957 0-11.457 3.1758-14.434 8.332-2.9805 5.1562-2.9805 11.512 0 16.668 2.9766 5.1562 8.4766 8.332 14.434 8.332z"/>
 <path d="m133.33 433.33v-16.664c0-5.957-3.1758-11.457-8.332-14.434-5.1562-2.9805-11.512-2.9805-16.668 0-5.1562 2.9766-8.332 8.4766-8.332 14.434v16.668-0.003907c0 5.957 3.1758 11.457 8.332 14.434 5.1562 2.9805 11.512 2.9805 16.668 0 5.1562-2.9766 8.332-8.4766 8.332-14.434z"/>
 <path d="m816.67 100c4.418 0 8.6602-1.7539 11.785-4.8789 3.125-3.1289 4.8828-7.3672 4.8789-11.789v-16.664c0-5.957-3.1758-11.457-8.332-14.434-5.1562-2.9805-11.512-2.9805-16.668 0-5.1562 2.9766-8.332 8.4766-8.332 14.434v16.664c0 4.4219 1.7539 8.6602 4.8789 11.789 3.1289 3.125 7.3672 4.8789 11.789 4.8789z"/>
 <path d="m850 133.33h16.668c5.9531 0 11.457-3.1758 14.434-8.332 2.9766-5.1562 2.9766-11.512 0-16.668-2.9766-5.1562-8.4805-8.332-14.434-8.332h-16.668c-5.9531 0-11.457 3.1758-14.434 8.332-2.9766 5.1562-2.9766 11.512 0 16.668 2.9766 5.1562 8.4805 8.332 14.434 8.332z"/>
 <path d="m766.67 133.33h16.668-0.003907c5.957 0 11.457-3.1758 14.434-8.332 2.9805-5.1562 2.9805-11.512 0-16.668-2.9766-5.1562-8.4766-8.332-14.434-8.332h-16.664c-5.957 0-11.457 3.1758-14.434 8.332-2.9805 5.1562-2.9805 11.512 0 16.668 2.9766 5.1562 8.4766 8.332 14.434 8.332z"/>
 <path d="m816.67 133.33c-4.4219 0-8.6602 1.7539-11.789 4.8828-3.125 3.125-4.8789 7.3633-4.8789 11.785v16.668c0 5.9531 3.1758 11.457 8.332 14.434 5.1562 2.9766 11.512 2.9766 16.668 0 5.1562-2.9766 8.332-8.4805 8.332-14.434v-16.668c0.003907-4.4219-1.7539-8.6602-4.8789-11.785-3.125-3.1289-7.3672-4.8828-11.785-4.8828z"/>
</svg>
