<?xml version="1.0" encoding="UTF-8"?><svg id="Ebene_2" xmlns="http://www.w3.org/2000/svg" viewBox="0 0 336.1 781.41"><defs><style>.cls-1{fill:#1d1e1b;}</style></defs><g id="Ebene_1-2"><path class="cls-1" d="M336.03,361.29v-193.12c0-23.25-4.39-45.07-13.18-65.48-8.79-20.41-20.8-38.24-36.04-53.47-15.23-15.23-33.06-27.25-53.46-36.04C212.94,4.4,191.11,0,167.87,0s-45.07,4.4-65.48,13.18c-20.41,8.79-38.19,20.81-53.32,36.04-15.14,15.23-27.1,33.06-35.89,53.47C4.39,123.1,0,144.92,0,168.17v251.95h.06v361.29h84.08v-276.57l162.02,276.57h89.94v-420.12h-.07ZM83.79,168.17c0-11.53,2.19-22.42,6.59-32.67,4.39-10.25,10.4-19.19,18.02-26.81,7.61-7.61,16.55-13.62,26.8-18.02,10.26-4.39,21.14-6.59,32.67-6.59s22.41,2.2,32.66,6.59c10.26,4.4,19.19,10.41,26.81,18.02,7.62,7.62,13.62,16.56,18.02,26.81,4.39,10.25,6.59,21.14,6.59,32.67v84.08H83.79v-84.08ZM252.02,638.14L83.79,361.31v-25.27h168.16v84.08h.07v218.02Z"/></g></svg>