<?xml version="1.0" encoding="UTF-8"?>
<svg id="Layer_2" data-name="Layer 2" xmlns="http://www.w3.org/2000/svg" viewBox="0 0 566.93 485.94">
  <defs>
    <style>
      .cls-1 {
        fill: #b8e9bd;
        stroke-width: 0px;
      }
    </style>
  </defs>
  <g id="Layer_1-2" data-name="Layer 1">
    <path class="cls-1" d="m374.58,141.73c39.14,0,70.87-31.73,70.87-70.87S413.72,0,374.58,0s-70.87,31.73-70.87,70.87,31.73,70.87,70.87,70.87Zm0-101.24c16.77,0,30.37,13.6,30.37,30.37s-13.6,30.37-30.37,30.37-30.37-13.6-30.37-30.37,13.6-30.37,30.37-30.37Zm91.11,242.97c-55.91,0-101.24,45.33-101.24,101.24s45.33,101.24,101.24,101.24,101.24-45.33,101.24-101.24-45.33-101.24-101.24-101.24Zm0,161.98c-33.55,0-60.74-27.2-60.74-60.74s27.2-60.74,60.74-60.74,60.74,27.2,60.74,60.74-27.2,60.74-60.74,60.74ZM101.24,283.46c-55.91,0-101.24,45.33-101.24,101.24s45.33,101.24,101.24,101.24,101.24-45.33,101.24-101.24-45.33-101.24-101.24-101.24Zm0,161.98c-33.55,0-60.74-27.2-60.74-60.74s27.2-60.74,60.74-60.74,60.74,27.2,60.74,60.74-27.2,60.74-60.74,60.74Zm344.21-202.47h-101.24c-5.37,0-10.52-2.13-14.33-5.92l-66.66-66.69-52.37,52.37,86.94,86.91c3.8,3.8,5.93,8.95,5.92,14.33v121.48c0,11.18-9.07,20.25-20.25,20.25s-20.25-9.07-20.25-20.25v-113.11l-95.31-95.29c-7.91-7.9-7.92-20.72-.02-28.63l.02-.02,80.99-80.99c7.9-7.91,20.72-7.92,28.63-.02l.02.02,75.04,75.07h92.86c11.18,0,20.25,9.07,20.25,20.25s-9.07,20.25-20.25,20.25Z"/>
  </g>
</svg>