<?xml version="1.0" encoding="UTF-8"?>
<svg id="Layer_2" data-name="Layer 2" xmlns="http://www.w3.org/2000/svg" viewBox="0 0 566.93 445.44">
  <defs>
    <style>
      .cls-1 {
        fill: #b8e9bd;
        stroke-width: 0px;
      }
    </style>
  </defs>
  <g id="Layer_1-2" data-name="Layer 1">
    <path class="cls-1" d="m425.2,182.23h-80.99V40.49c0-22.36-18.13-40.49-40.49-40.49H20.25C9.07,0,0,9.07,0,20.25c0,2.47.45,4.93,1.34,7.24,27.99,72.99,22.17,211.86-.56,290.88-.51,1.82-.78,3.7-.78,5.59v80.99c0,22.36,18.13,40.49,40.49,40.49h66.08c6.29,0,12.5-1.46,18.12-4.28l31.94-15.97h41.05l31.94,15.97c5.63,2.81,11.83,4.28,18.12,4.28h71.42c6.29,0,12.5-1.46,18.12-4.28l31.94-15.97h41.05l31.94,15.97c5.63,2.81,11.83,4.28,18.12,4.28h66.08c22.36,0,40.49-18.13,40.49-40.49v-80.99c-.08-78.24-63.49-141.65-141.73-141.73ZM47.73,40.49h255.98v60.74h-80.99c-11.18,0-20.25,9.07-20.25,20.25s9.07,20.25,20.25,20.25h80.99v40.49h-80.99c-11.18,0-20.25,9.07-20.25,20.25s9.07,20.25,20.25,20.25h202.47c48.09.06,89.53,33.88,99.21,80.99H46.19c17.08-78.05,20.65-187.72,1.54-263.22Zm478.7,364.45h-66.08l-31.94-15.97c-5.63-2.81-11.83-4.28-18.12-4.28h-41.05c-6.29,0-12.5,1.46-18.12,4.28l-31.94,15.97h-71.42l-31.94-15.97c-5.63-2.81-11.83-4.28-18.12-4.28h-41.05c-6.29,0-12.5,1.46-18.12,4.28l-31.94,15.97H40.49v-60.74h485.94v60.74Z"/>
  </g>
</svg>