<?xml version="1.0" encoding="UTF-8"?>
<svg id="Layer_2" data-name="Layer 2" xmlns="http://www.w3.org/2000/svg" viewBox="0 0 566.93 471.83">
  <defs>
    <style>
      .cls-1 {
        fill: #c2f5ff;
        stroke-width: 0px;
      }
    </style>
  </defs>
  <g id="Layer_1-2" data-name="Layer 1">
    <path class="cls-1" d="m561.36,381.15c8.32,9.98,7.01,24.82-2.95,33.18-51.19,42.44-96.9,57.51-138.6,57.51-54.79,0-102.68-26.01-147.24-50.13-74.76-40.58-139.31-75.61-233.18,2.18-9.96,8.4-24.84,7.14-33.24-2.82-8.4-9.96-7.14-24.84,2.82-33.24.09-.08.19-.16.28-.23,118.46-98.14,207.37-49.9,285.85-7.31,74.76,40.55,139.31,75.58,233.18-2.18,10-8.24,24.77-6.87,33.09,3.07Zm-33.24-168.09c-93.87,77.79-158.42,42.76-233.18,2.18-78.47-42.55-167.38-90.8-285.85,7.34-9.96,8.4-11.22,23.28-2.82,33.24,8.31,9.85,22.98,11.21,32.96,3.06,93.87-77.79,158.42-42.76,233.18-2.18,44.56,24.15,92.45,50.13,147.24,50.13,41.7,0,87.41-15.07,138.6-57.51,10.09-8.24,11.58-23.11,3.34-33.2-8.24-10.09-23.11-11.58-33.2-3.34-.09.08-.19.16-.28.23v.03ZM39.24,93.77c93.87-77.76,158.42-42.73,233.18-2.18,44.56,24.18,92.45,50.13,147.24,50.13,41.7,0,87.41-15.1,138.6-57.51,10.09-8.24,11.58-23.11,3.34-33.2-8.24-10.09-23.11-11.58-33.2-3.34-.09.08-.19.16-.28.23-93.87,77.79-158.42,42.76-233.18,2.18C216.48,7.6,127.56-40.64,9.1,57.5c-10.28,8-12.13,22.83-4.13,33.11,8,10.28,22.83,12.13,33.11,4.13.4-.31.78-.63,1.16-.96Z"/>
  </g>
</svg>